<!-- icon666.com - MILLIONS OF FREE VECTOR ICONS --><svg viewBox="0 0 64 64" xmlns="http://www.w3.org/2000/svg"><g id="Layer_67" data-name="Layer 67"><path d="m35.21 62a2 2 0 0 1 -1.54-.72l-23.21-28a2 2 0 0 1 0-2.55l23.21-28a2 2 0 1 1 3.08 2.55l-22.15 26.72 22.15 26.72a2 2 0 0 1 -1.54 3.28z" fill="#000000" style="fill: rgb(255, 255, 255);"></path><path d="m52 62a2 2 0 0 1 -1.54-.72l-23.21-28a2 2 0 0 1 0-2.55l23.21-28a2 2 0 1 1 3.08 2.55l-22.16 26.72 22.16 26.72a2 2 0 0 1 -1.54 3.28z" fill="#000000" style="fill: rgb(255, 255, 255);"></path></g></svg>